<?xml version="1.0" encoding="UTF-8" standalone="no"?>
<svg xmlns="http://www.w3.org/2000/svg" xmlns:svg="http://www.w3.org/2000/svg" width="256" height="246" viewBox="0 0 256 246.00001" version="1.1" id="svg20145">
   <path d="M 98.228489,67.295024 C 84.902579,68.228068 72.4124,89.43046 60.168365,111.42852 c -1.471119,2.65602 -2.890715,5.19184 -4.098519,7.39565 l 0.143115,-0.0916 L 25.6,172.94061 c 12.329903,7.67042 28.294665,7.38992 41.134016,1.19063 6.10771,-2.54153 11.076306,-6.94342 15.62704,-12.75921 2.404155,-3.06241 7.401369,-11.75175 14.802747,-25.60428 9.622357,18.79251 17.807947,42.39334 36.760737,42.75968 v 0.0516 c 36.76646,-0.69832 32.9885,-88.879443 77.86041,-59.69181 -1.21353,-2.19808 -2.63313,-4.7339 -4.10425,-7.3842 -19.57672,-35.209481 -39.81745,-68.381152 -63.06911,-19.731274 -3.17692,6.256538 -5.49521,18.414714 -10.68705,18.414714 v -0.0687 c -5.19184,0 -7.50441,-12.146728 -10.68706,-18.403266 -8.71794,-18.242978 -17.01229,-24.986071 -25.014701,-24.4251 z M 210.07912,136.83247 c -11.21368,0 -20.29797,9.3476 -20.29797,20.87039 0,11.52852 9.08429,20.87612 20.3037,20.87612 11.21941,0 20.31515,-9.3476 20.31515,-20.87039 0,-11.52852 -9.10146,-20.87612 -20.32088,-20.87612 z" id="path20143" style="stroke-width:5.72416;fill:currentColor;fill-opacity:1"/>
</svg>
